<svg width="35" height="42" fill="none" xmlns="http://www.w3.org/2000/svg"><path d="M35 30.45a61.1396 61.1396 0 01-.7219 1.925c-.6344 1.4438-1.3781 2.7781-2.2312 4.025-1.1813 1.6844-2.1438 2.8437-2.8875 3.4781-1.1375 1.05-2.3844 1.5969-3.6969 1.6188-.9406 0-2.0781-.2625-3.4125-.8094-1.3344-.5469-2.5594-.8094-3.675-.8094-1.1813 0-2.4281.2625-3.7844.8094-1.3562.5469-2.4281.8312-3.2593.8531-1.2688.0438-2.5157-.5031-3.7844-1.6625-.8094-.7-1.8156-1.9031-3.0188-3.6094-1.2906-1.8156-2.3625-3.9156-3.1937-6.3218C.4375 27.3437 0 24.8281 0 22.4c0-2.7781.6125-5.1844 1.8156-7.1969.9406-1.6187 2.2094-2.8875 3.7844-3.8281 1.575-.9406 3.2813-1.4219 5.1188-1.4437 1.0062 0 2.3187.3062 3.9593.9187 1.6407.6125 2.6906.9187 3.15.9187.35 0 1.5094-.3718 3.4781-1.0937 1.8594-.6781 3.4344-.9406 4.725-.8313 3.5.2844 6.125 1.6626 7.875 4.1344-3.1281 1.9032-4.6812 4.55-4.6375 7.9625.0219 2.6469.9844 4.8563 2.8875 6.6063.8313.8312 1.7719 1.4437 2.8438 1.9031zM26.2062 0c.0219.2844.0438.5469.0438.8312 0 2.0782-.7656 4.025-2.275 5.8188-1.8375 2.1437-4.0469 3.3687-6.4312 3.1719-.0219-.2406-.0438-.5031-.0438-.7875 0-1.9906.875-4.1344 2.4062-5.8844.7657-.875 1.7501-1.6187 2.9313-2.2094C24.0406.372 25.1562.0437 26.2062 0z" fill="#333"/></svg>